<?xml version="1.0" encoding="UTF-8" standalone="no"?>
<!-- Created with Inkscape (http://www.inkscape.org/) -->

<svg
   version="1.1"
   id="svg1"
   width="48"
   height="48"
   viewBox="0 0 48 48"
   xml:space="preserve"
   xmlns="http://www.w3.org/2000/svg"
   xmlns:svg="http://www.w3.org/2000/svg"><defs
     id="defs1" /><path
     style="fill:#3366ff;fill-opacity:1;stroke-width:0.0823542"
     d="M 14.070167,45.178696 C 11.916715,44.644163 10.209812,43.058826 9.2891605,41.068705 6.367923,36.092333 3.3993392,31.135382 0.70981752,26.02964 0.25901465,23.930802 0.36669283,21.61742 1.7408311,19.865396 4.6063238,14.918748 7.2900194,9.8553332 10.40795,5.0618513 c 1.304646,-1.8655409 3.640626,-2.6142282 5.840778,-2.4575347 5.762376,-0.015323 11.532545,-0.182588 17.290578,0.048516 2.211781,0.24828 4.063469,1.7858323 5.060369,3.7313556 3.021176,5.0623978 5.975171,10.1698778 8.780521,15.3548338 0.471207,2.010149 0.412851,4.273093 -0.861383,5.992056 -2.845827,5.018787 -5.606183,10.0969 -8.688871,14.974134 -1.569905,2.197251 -4.335319,2.803236 -6.881239,2.614938 -5.623042,0.03516 -11.262864,0.158799 -16.878536,-0.141469 z"
     id="path1" /><path
     style="fill:#ffffff;fill-opacity:1;stroke-width:0.0302886"
     d="m 25.076545,6.5873059 c -1.257202,0.013285 -2.464654,0.5382255 -3.430682,1.3242453 -0.378335,0.2830173 -0.716253,0.7054628 -1.225243,0.7266354 -1.190234,0.1093136 -2.42458,-0.091091 -3.578758,0.295786 -1.016281,0.3590645 -1.75754,1.1815314 -2.531253,1.8921684 -0.176334,0.149062 -0.327122,0.343782 -0.526093,0.456962 -1.029876,0.338776 -2.120448,0.523252 -3.088337,1.030147 -0.9933159,0.51971 -1.8067457,1.366912 -2.277696,2.385005 -0.6094503,1.29449 -0.8090024,2.732022 -0.9573037,4.141396 -0.1451291,1.740118 -0.1935297,3.486497 -0.2936159,5.229549 -0.049608,1.33561 -0.052201,2.674289 0.00807,4.009533 0.048387,0.881357 0.3142629,1.770893 0.8885453,2.455631 0.6383228,0.803112 1.5408939,1.392118 2.5430673,1.622504 0.804408,0.224131 1.67242,0.196687 2.458219,-0.08799 0.177308,-0.05971 0.350918,-0.130247 0.521338,-0.207341 0.935082,0.581921 2.030441,0.87693 3.12469,0.937037 0.309538,0.01167 0.620525,-4.97e-4 0.927141,-0.04561 0.0026,0.610537 0.08725,1.241056 0.417452,1.76831 0.488943,0.891765 1.293326,1.572293 2.193248,2.026693 0.858031,0.461347 1.77138,0.803742 2.670755,1.172978 0.35345,0.155029 0.756189,0.333826 1.133723,0.48804 1.020601,0.410963 2.022091,0.880596 3.078584,1.194069 0.662711,0.197016 1.364586,0.175946 2.040395,0.06512 1.188333,-0.12492 2.266443,-0.676314 3.352899,-1.132441 1.833945,-0.800404 3.704746,-1.529866 5.457996,-2.501438 0.7214,-0.438926 1.341671,-1.035055 1.866024,-1.693454 0.475723,-0.611532 0.693233,-1.380398 0.834132,-2.130493 0.07784,-0.634274 0.04471,-1.276646 0.03654,-1.914107 -0.03896,-0.909917 -0.227214,-1.807566 -0.45297,-2.687503 -0.283834,-1.038603 -0.699732,-2.03587 -0.969988,-3.078832 -0.153551,-0.551993 -0.31965,-1.186704 -0.428148,-1.751695 -0.125066,-0.782339 -0.121693,-1.578719 -0.163599,-2.368434 -0.06338,-1.369269 -0.06121,-2.748665 -0.287093,-4.104052 -0.103057,-0.65859 -0.366016,-1.273579 -0.611032,-1.88836 -0.18109,-0.60428 -0.251574,-1.236545 -0.440154,-1.839669 C 37.014356,11.17542 36.416868,10.015063 35.491287,9.1530709 34.856729,8.5265557 34.035785,8.0988556 33.173903,7.8838927 31.920813,7.6045926 30.638775,7.9077585 29.374072,7.834245 28.894402,7.7210857 28.465609,7.4588847 28.013987,7.2687663 27.100653,6.8216767 26.096392,6.5690701 25.076545,6.5873059 Z m 0.485737,2.3258008 c 0.896265,0.061612 1.833631,0.3817078 2.428472,1.0841881 0.149051,0.2113822 0.133722,0.5027612 0.311731,0.7029852 0.289835,0.43716 0.972314,0.497057 1.33885,0.124124 0.239104,-0.212238 0.35577,-0.551176 0.672241,-0.675855 0.501606,-0.2783383 1.10371,-0.3308501 1.653904,-0.1800932 0.857773,0.2047532 1.710854,0.5932572 2.305443,1.2617172 0.489897,0.608193 0.645581,1.39349 0.921655,2.106525 0.438292,1.332335 1.035929,2.636489 1.153852,4.050806 0.01706,0.181577 0.02843,0.353938 0.03188,0.509939 0.01706,0.54738 -0.0044,1.094883 -0.01646,1.642142 -0.109596,-0.38906 -0.199081,-0.816955 -0.48428,-1.119957 -0.347578,-0.352981 -0.988056,-0.320069 -1.283733,0.08217 -0.298532,0.359297 -0.161073,0.852286 -0.164365,1.276791 0.07488,1.333943 0.05953,2.679444 2.48e-4,3.999758 -0.04355,0.763342 -0.22039,1.51176 -0.352791,2.263044 -0.131205,0.675076 -0.337535,1.320602 -0.527883,1.985578 -0.204887,0.627711 -0.439565,1.319497 -1.008075,1.711097 -0.233438,0.155447 -0.503069,0.263306 -0.787918,0.239275 -0.909112,0.0072 -1.827226,0.06806 -2.729013,-0.07611 -0.45726,-0.09216 -0.928509,-0.224338 -1.300545,-0.517412 0.03631,-1.028577 0.06549,-2.058124 0.170034,-3.082804 0.170821,-1.737065 0.312113,-3.477746 0.360311,-5.223145 0.05732,-1.304588 0.0845,-2.611203 0.17444,-3.91392 0.10276,-0.412148 -0.06176,-0.90167 -0.464287,-1.084896 -0.433406,-0.223845 -0.999952,0.0018 -1.1893,0.444247 -0.32211,0.712304 -0.391089,1.503586 -0.522317,2.265827 -0.373005,2.638594 -0.531544,5.309983 -0.720269,7.959787 -0.06212,0.65022 -0.08402,1.347001 -0.278046,1.988555 -0.192376,0.578236 -0.751229,0.915307 -1.253504,1.198756 -0.526349,0.265901 -1.109479,0.52972 -1.714049,0.425289 -0.418916,-0.06713 -0.845792,-0.142601 -1.237617,-0.309992 -0.165222,-0.09559 -0.413207,-0.192694 -0.388945,-0.4217 -0.07025,-1.250744 -0.04856,-2.504878 -0.05379,-3.757161 0.0295,-3.007075 0.207784,-6.021313 -0.03768,-9.023803 -0.08848,-0.459509 -0.552987,-0.822067 -1.023877,-0.727876 -0.473305,0.07227 -0.761248,0.536363 -0.827491,0.978831 -0.311303,1.561877 -0.274701,3.163523 -0.31646,4.748155 -0.03886,2.339765 -0.01598,4.680834 -0.09657,7.019697 -0.01084,0.368378 -0.03987,0.74832 -0.236575,1.07113 -0.165098,0.372601 -0.609748,0.428752 -0.968732,0.448553 -0.68831,0.03557 -1.417984,-0.06264 -2.011299,-0.433487 -0.196915,-0.153974 -0.416705,-0.322136 -0.515715,-0.55594 -0.07657,-1.508922 -0.0676,-3.041535 -0.06757,-4.567962 0.0045,-1.590274 0.02571,-3.206429 0.06854,-4.779906 0.01153,-0.619357 0.06047,-1.236501 0.12261,-1.852341 0.04374,-0.385267 -0.0344,-0.830981 -0.378338,-1.062065 -0.42929,-0.323503 -1.114404,-0.126446 -1.312114,0.372185 -0.223585,0.592016 -0.357124,1.216084 -0.47603,1.836668 -0.153945,1.209753 -0.150265,2.432731 -0.201433,3.649515 -0.05832,1.912335 -0.08949,3.837554 -0.154695,5.737655 -0.0164,0.327814 -0.02299,0.656999 -0.06701,0.982611 -0.443135,-0.01286 -0.855561,0.005 -1.293197,-0.06064 C 10.401013,29.51835 9.9764847,29.274747 9.8233301,28.841212 9.5403306,28.079225 9.4599992,27.260035 9.3805962,26.456276 9.1953552,24.311334 9.5199696,22.170857 9.6317157,20.03139 c 0.084031,-1.196796 0.1352545,-2.415175 0.5272903,-3.560528 0.174774,-0.499647 0.322152,-1.043791 0.72108,-1.417901 0.473122,-0.520961 1.072431,-0.931542 1.752261,-1.127411 0.296593,-0.0874 0.608509,-0.148387 0.918552,-0.121627 0.156034,0.309204 0.32152,0.661367 0.672069,0.788529 0.451202,0.178568 1.012986,-0.08514 1.143872,-0.55733 0.247999,-0.889158 0.510575,-1.836169 1.192119,-2.500711 0.392138,-0.382844 0.934738,-0.611682 1.479595,-0.636505 0.69087,0.06882 1.376028,0.188048 2.059814,0.307019 -0.04401,0.363759 -0.06905,0.787279 0.218363,1.064638 0.367238,0.411215 1.096215,0.328123 1.38138,-0.137538 0.242959,-0.349791 0.303054,-0.786988 0.518799,-1.152628 0.268957,-0.547286 0.581112,-1.1055272 1.103966,-1.4492491 0.649135,-0.4483162 1.45436,-0.6681874 2.241403,-0.6170475 z m 11.29903,15.7706063 c 0.464917,1.482848 0.993159,2.947276 1.378593,4.454101 0.03504,0.140512 0.09379,0.38219 0.120041,0.518908 0.155357,0.738716 0.240142,1.526177 -0.01586,2.253386 -0.161253,0.659591 -0.563847,1.250144 -1.123807,1.635399 -0.710097,0.504799 -1.523429,0.836501 -2.307915,1.205618 -1.371309,0.592774 -2.731571,1.210463 -4.084165,1.844847 -0.286531,0.12905 -0.598827,0.28312 -0.875392,0.386387 0.263935,-0.87693 0.282849,-1.824396 0.03292,-2.706873 -0.09165,-0.42192 -0.298789,-0.884758 -0.74209,-1.028717 -0.483041,-0.183429 -1.062689,0.164784 -1.136246,0.673665 -0.04323,0.366654 0.08735,0.729484 0.07763,1.098123 0.03522,0.788738 -0.174459,1.566774 -0.49738,2.280671 -0.833356,-0.30178 -1.644592,-0.671149 -2.383993,-1.163411 -0.116079,-0.07278 -0.24095,-0.153949 -0.368342,-0.238466 0.03031,-0.808823 0.08258,-1.621821 0.02074,-2.429777 -0.06454,-0.406344 -0.272821,-0.789585 -0.56957,-1.073724 0.690289,-0.182501 1.366133,-0.424769 2.01233,-0.728846 0.727534,0.252024 1.473498,0.454956 2.226148,0.616051 0.809018,0.09107 1.626332,0.06546 2.43933,0.07978 0.658189,0.01317 1.326357,-0.0331 1.947728,-0.267108 0.711548,-0.217366 1.417542,-0.547051 1.905794,-1.127326 0.425223,-0.495674 0.735155,-1.088431 0.940435,-1.706158 0.09463,-0.478914 0.223891,-0.94925 0.347775,-1.42136 0.239304,-1.02151 0.379018,-2.063848 0.507062,-3.104297 0.01556,-0.141012 0.02724,-0.282394 0.04144,-0.423534 0.03562,0.124232 0.07114,0.248445 0.106755,0.372669 z m -15.66191,8.506426 c 0.563378,0.194502 1.11943,0.411459 1.661492,0.659449 0.0194,0.413355 -0.02792,0.827049 -0.06552,1.238358 -0.678252,-0.238704 -1.350119,-0.501431 -1.991948,-0.826865 0.04137,-0.3795 0.123118,-0.759609 0.280477,-1.108795 0.03849,0.01227 0.07699,0.02513 0.115486,0.03783 z"
     id="path2" /></svg>
