<svg viewBox="0 0 512 512" xmlns="http://www.w3.org/2000/svg"><path fill="#3366ff" d="M 149.19482,482.98434 C 126.19294,477.27476 107.96084,460.3411 98.126956,439.08373 66.924033,385.92913 35.215387,332.982 6.4875065,278.44545 1.6722975,256.02688 2.8224515,231.31673 17.500181,212.60267 48.107679,159.76547 76.77332,105.68109 110.07722,54.479962 c 13.93544,-19.926612 38.887,-27.923646 62.38774,-26.249933 61.55026,-0.163694 123.18381,-1.950312 184.68775,0.518204 23.62484,2.651959 43.40351,19.075201 54.05179,39.856134 32.2704,54.073513 63.82326,108.628593 93.78836,164.011203 5.0331,21.47121 4.40979,45.64268 -9.20081,64.00363 -30.39745,53.60767 -59.88191,107.84915 -92.80931,159.94478 -16.76881,23.46973 -46.30736,29.94255 -73.50136,27.93122 -60.062,0.37564 -120.30324,1.69594 -180.28656,-1.51086 z"/><path style="fill: #ffffff" d="m 267.02328,73.460127 c -7.80406,0.13315 -15.55358,2.13095 -22.49277,5.69298 -5.23548,2.65376 -10.02637,6.11164 -14.4673,9.93367 -0.68406,0.5687 -1.408,1.17599 -2.07372,1.71259 -0.51885,0.41034 -0.9873,0.78449 -1.52058,1.17505 -0.63607,0.46725 -1.28969,0.91083 -1.96355,1.32186 -0.1362,0.0767 -0.37114,0.22306 -0.55004,0.31853 -2.02009,1.16852 -4.32525,1.73527 -6.62656,2.00721 -0.38411,0.0462 -0.85101,0.0963 -1.2686,0.1323 -1.32499,0.11997 -2.64866,0.18983 -3.99209,0.23156 -7.40894,0.25063 -14.89301,-0.082 -22.3089,0.55213 -4.62978,0.39061 -9.27961,1.31405 -13.4927,3.33206 -4.61425,2.194393 -8.62556,5.431423 -12.43364,8.793903 -5.44713,4.81234 -10.52471,10.02212 -15.9847,14.81936 -0.30753,0.21407 -0.70034,0.25781 -1.04332,0.40175 -3.84713,1.27829 -7.79398,2.32524 -11.70758,3.43203 -5.29938,1.49155 -10.61339,2.96941 -15.77098,4.90753 -3.90575,1.49669 -7.59734,3.51839 -11.05301,5.86752 -4.63558,3.15612 -8.739054,7.09989 -12.025324,11.64727 -4.12193,5.67824 -6.9823,12.17936 -9.04546,18.86019 -2.077734,6.7662 -3.400886,13.73862 -4.430935,20.73304 -0.615418,4.1493 -1.119783,8.31484 -1.494461,12.49281 -0.686152,7.53598 -1.063536,15.09553 -1.451956,22.65128 -0.528056,10.7353 -1.016213,21.47562 -1.617828,32.20137 -0.350024,6.55687 -0.397632,13.12485 -0.421432,19.68962 -0.0135,7.63533 0.02257,15.27405 0.36645,22.90272 0.290868,5.09602 0.98966,10.23071 2.803373,15.02803 1.544761,4.14054 3.945089,7.931 6.858459,11.24241 2.3106,2.65101 4.8812,5.08518 7.71136,7.17595 4.15593,3.04635 8.882754,5.28582 13.835274,6.6907 3.18653,0.92075 6.45108,1.59581 9.75413,1.91796 5.71328,0.47075 11.47813,-0.57294 16.83334,-2.55217 2.2956,-0.83646 4.52472,-1.84188 6.73683,-2.87589 3.99337,2.4136 8.03643,4.81491 12.4324,6.42991 4.63938,1.755 9.48439,2.92122 14.37304,3.72723 5.58909,0.88877 11.32233,1.01787 16.9181,0.11225 1.70053,-0.25278 3.39478,-0.54952 5.09978,-0.77409 0.0789,1.96567 0.0617,3.98302 0.11742,5.97325 0.078,3.3873 0.23087,6.80378 1.02117,10.1116 0.49787,2.01653 1.31707,3.94032 2.31699,5.75683 3.86836,7.32758 9.83969,13.48026 16.9043,17.78138 4.70629,2.92328 9.70931,5.32731 14.73905,7.63465 5.21732,2.36024 10.54695,4.46019 15.88258,6.5351 4.1472,1.71875 8.21546,3.61946 12.35907,5.34656 4.26729,1.79377 8.55821,3.53139 12.82373,5.32968 6.44005,2.68175 12.88712,5.36613 19.4913,7.62346 3.34407,1.11985 6.7918,1.98547 10.31252,2.29219 2.83407,0.27353 5.7004,0.23253 8.52223,-0.15318 3.903,-0.47896 7.8615,-0.90837 11.71204,-1.80393 3.8738,-0.89185 7.62042,-2.24965 11.31935,-3.68899 3.85225,-1.52354 7.65594,-3.16671 11.4615,-4.80284 6.22351,-2.69863 12.42383,-5.41925 18.66921,-8.06439 6.61343,-2.81355 13.26843,-5.5523 19.80935,-8.5413 6.51308,-2.95593 12.9704,-6.03618 19.34343,-9.28437 2.51209,-1.2926 5.0238,-2.5997 7.40507,-4.12407 3.71839,-2.43446 7.06872,-5.38299 10.25954,-8.4646 2.92319,-2.86962 5.69283,-5.91967 8.03083,-9.29027 1.76404,-2.61935 2.96529,-5.5642 4.01416,-8.52835 1.04104,-3.00868 1.85385,-6.09543 2.46867,-9.21825 0.428,-2.28504 0.55891,-4.61183 0.59078,-6.9325 0.045,-2.9289 0.0241,-5.8584 0.0233,-8.78752 -0.0186,-4.56934 -0.1741,-9.15392 -0.89004,-13.67385 -0.55146,-3.7377 -1.21778,-7.45843 -1.98172,-11.15842 -1.48347,-7.02171 -3.51289,-13.91997 -5.88857,-20.68884 -1.03352,-2.98529 -2.09363,-5.9619 -3.06178,-8.96941 -1.86562,-5.87196 -3.59337,-11.85047 -5.15222,-17.83499 -1.03197,-3.9357 -2.00483,-7.92355 -2.82245,-11.92467 -0.0963,-0.48758 -0.20792,-1.02863 -0.29702,-1.51547 -0.3596,-1.85436 -0.60738,-3.72884 -0.74813,-5.61239 -0.40311,-4.75506 -0.62832,-9.51376 -0.84863,-14.28941 -0.57931,-13.14291 -0.78249,-26.30914 -1.88828,-39.42329 -0.46228,-5.21431 -1.11309,-10.43308 -2.40647,-15.5139 -0.7714,-3.05981 -1.80794,-6.04753 -3.01764,-8.9605 -1.09301,-2.63933 -2.23997,-5.26738 -3.01587,-8.02283 -0.68454,-2.35212 -1.05004,-4.77733 -1.56799,-7.16796 -1.4471,-7.01364 -3.17849,-14.01841 -6.04514,-20.60358 -1.85199,-4.3004 -3.99704,-8.48523 -6.56,-12.40754 -2.20477,-3.34973 -4.78534,-6.44481 -7.62283,-9.27562 -2.7045,-2.750513 -5.62723,-5.322773 -8.93856,-7.322933 -2.63819,-1.62234 -5.41815,-3.0097 -8.2744,-4.20408 -3.42355,-1.40876 -7.0236,-2.40953 -10.70307,-2.85006 -7.15868,-0.92288 -14.39888,-0.26322 -21.56114,0.0963 -2.62198,0.13501 -5.24535,0.24136 -7.86967,0.31879 -1.96132,0.0369 -3.99121,0.0896 -5.97666,-0.0245 -0.55844,-0.0333 -1.17986,-0.10767 -1.69162,-0.19227 -1.70381,-0.26543 -3.31179,-0.91211 -4.90329,-1.54975 -2.78885,-1.15285 -5.50854,-2.46371 -8.24924,-3.72479 -4.3615,-2.02781 -8.74166,-4.06848 -13.34935,-5.48198 -4.3478,-1.29871 -8.83742,-2.11117 -13.35765,-2.48781 -1.79407,-0.13665 -3.59394,-0.19266 -5.3931,-0.16717 z m 2.69243,14.36218 c 0.8639,0.008 1.74277,0.0286 2.57809,0.0774 0.35821,0.0161 0.70368,0.0458 1.084,0.0722 6.10239,0.47754 12.1368,2.04366 17.64042,4.73712 2.26129,1.11165 4.42455,2.42705 6.43142,3.95205 0.33453,0.25583 0.72537,0.56572 1.07262,0.85417 0.61833,0.51397 1.21684,1.05176 1.79546,1.61005 0.2474,0.2446 0.55565,0.54886 0.81667,0.82679 0.86774,0.928783 1.714,1.891073 2.39885,2.965053 0.70082,1.14082 1.09476,2.43517 1.37073,3.7364 0.37274,1.51365 1.08282,3.04469 2.39593,3.9604 1.56634,1.07803 3.85028,0.86165 5.22042,-0.44457 1.44159,-1.16233 2.25959,-2.86571 3.41409,-4.27647 0.12291,-0.14335 0.31485,-0.37013 0.47461,-0.53772 1.89813,-2.03736 4.37586,-3.41699 6.90812,-4.51103 1.74132,-0.75728 3.60766,-1.376713 5.42559,-1.781683 0.65181,-0.14594 1.37163,-0.27519 1.99173,-0.3686 1.97211,-0.29043 3.97586,-0.35292 5.96309,-0.20064 0.3261,0.0259 0.71797,0.0604 1.06795,0.0994 0.20396,0.0247 0.51346,0.0598 0.75775,0.0958 2.55909,0.36625 5.04993,0.93689 7.54295,1.639403 4.89717,1.39743 9.62991,3.39047 14.01314,5.9876 0.43421,0.26068 0.93077,0.56009 1.3818,0.84776 3.01997,1.92799 5.88601,4.13918 8.31978,6.7794 3.12482,3.40456 5.27948,7.57016 6.96884,11.83937 1.29921,3.31671 2.33768,6.7278 3.57749,10.06626 1.39086,3.84377 2.64657,7.7628 4.03231,11.61968 2.05316,5.8009 4.20852,11.56995 6.01149,17.45591 0.31121,1.0345 0.63669,2.12088 0.92215,3.16297 0.90982,3.27762 1.66253,6.60012 2.21585,9.95684 0.43048,2.66059 0.7735,5.39279 0.98644,8.10144 0.0388,0.47644 0.0706,1.00456 0.1078,1.50989 0.0249,0.45637 0.0574,0.98893 0.0798,1.47557 0.28554,6.71204 0,13.42936 -0.143,20.14116 -0.0566,2.02992 -0.13843,4.09579 -0.24746,6.11893 -0.2135,4.03906 -0.63359,8.11059 -0.86625,12.16887 -0.26335,4.69595 -0.0233,9.42526 0.81157,14.05642 0.99079,5.57323 2.69853,10.98953 4.1623,16.43946 0.84793,3.10705 1.77684,6.19158 2.77514,9.25377 1.98328,6.12247 4.05605,12.21642 6.01831,18.34621 1.72914,5.35528 3.41423,10.74136 4.97905,16.12677 1.20328,4.13013 2.32551,8.26319 3.29753,12.45283 0.33781,1.46164 0.67049,3.01281 0.95775,4.49379 0.32749,1.70668 0.61815,3.44512 0.83738,5.14539 0.2729,2.09008 0.44809,4.19339 0.50625,6.30064 0.0117,0.53078 0.0233,1.13141 0.0186,1.69007 0,0.65573 -0.0178,1.31129 -0.0435,1.9665 -0.0186,0.33477 -0.0356,0.75856 -0.0652,1.12698 -0.0807,1.07549 -0.22653,2.14543 -0.42188,3.20591 -0.0403,0.20088 -0.0858,0.45417 -0.13323,0.67716 -0.48686,2.31238 -1.12192,4.59186 -1.8212,6.84828 -0.97264,3.1169 -2.27556,6.12213 -4.03906,8.87815 -1.5448,2.42145 -3.39664,4.6476 -5.50376,6.6 -0.41319,0.38035 -0.88221,0.80423 -1.32999,1.18677 -1.33744,1.14914 -2.74522,2.21487 -4.19719,3.21471 -0.46158,0.31343 -0.98163,0.66407 -1.47485,0.97895 -3.25147,2.10472 -6.71852,3.84471 -10.1796,5.57231 -7.37428,3.64685 -14.88784,7.00358 -22.45096,10.23795 -10.17656,4.39642 -20.22905,9.06938 -30.26983,13.76454 -5.60829,2.60671 -11.21372,5.20863 -16.92392,7.57266 -0.74325,0.30496 -1.4388,0.58506 -2.19251,0.87068 -1.59165,0.6075 -3.24728,1.17235 -4.86544,1.61305 -0.88362,0.24038 -1.77555,0.45084 -2.67515,0.62181 1.64249,-2.00581 2.84614,-4.32666 3.85026,-6.70532 1.54691,-3.71024 2.51171,-7.64384 3.09256,-11.61497 0.66617,-4.7122 0.65073,-9.53862 -0.25157,-14.21887 -0.45786,-2.51287 -1.03189,-5.00982 -1.81817,-7.44135 -0.49447,-1.49568 -1.17217,-3.03327 -2.46071,-4.01303 -1.08197,-0.8455 -2.57731,-1.21522 -3.89848,-0.76173 -1.66432,0.54698 -2.87476,2.25667 -2.77827,4.01564 0.0266,1.15058 0.29979,2.2756 0.42221,3.41692 0.15279,1.10959 0.27334,2.21199 0.36861,3.31165 0.17804,2.05299 0.25523,4.16265 0.21442,6.24515 -0.0355,1.93023 -0.18359,3.88996 -0.43719,5.83353 -0.0648,0.48527 -0.12886,0.91885 -0.20321,1.40263 -0.0792,0.49823 -0.17684,1.0669 -0.27668,1.59029 -0.8552,4.60654 -2.35839,9.06814 -4.17159,13.38024 -0.48781,1.17645 -1.03673,2.38274 -1.51361,3.58535 -0.3135,0.83904 -0.67645,1.70893 -0.57687,2.62456 -1.2084,-0.046 -2.39258,-0.33945 -3.51607,-0.77719 -2.35551,-0.85265 -4.68645,-1.77086 -7.02081,-2.67925 -5.10731,-2.00861 -10.14004,-4.24261 -14.89811,-6.98875 -3.54213,-2.01722 -6.94525,-4.16558 -10.35637,-6.40902 -1.0602,-0.70003 -2.11852,-1.40302 -3.17191,-2.1133 0.37619,-7.12848 0.66369,-14.26399 0.66275,-21.40351 -0.003,-2.12687 -0.007,-4.2572 -0.1608,-6.37915 -0.1628,-1.59497 -0.64152,-3.15245 -1.39193,-4.56845 -1.03562,-2.18039 -2.55088,-4.17509 -4.56266,-5.53941 -2.43591,-1.76009 -5.24028,-2.8963 -7.991,-4.05996 -2.51204,-1.03326 -5.05001,-2.00248 -7.59511,-2.95089 4.66376,0.0354 9.33197,0.0219 13.98912,-0.25165 1.42388,-0.0907 2.85202,-0.20901 4.24296,-0.5426 1.89618,-0.44587 3.7677,-0.99188 5.63099,-1.55813 4.08056,-1.2649 8.0943,-2.74041 12.04716,-4.35905 2.12353,-0.89298 4.21532,-1.86119 6.26857,-2.90566 2.40889,0.97329 4.86225,1.83729 7.35957,2.55502 5.4458,1.64964 10.94586,3.12049 16.48406,4.42555 2.79286,0.59692 5.66053,0.65094 8.50297,0.77199 4.9889,0.15905 9.98107,0.20768 14.97214,0.26229 3.52451,0.0217 7.05221,0.0599 10.5737,-0.11134 2.85743,-0.14843 5.71416,-0.52207 8.46968,-1.31129 2.38996,-0.66253 4.73702,-1.46905 7.07873,-2.28328 3.18043,-1.12684 6.31565,-2.45978 9.13088,-4.34068 3.71575,-2.4601 6.79839,-5.79917 9.19828,-9.53872 2.02034,-3.13538 3.66232,-6.50076 5.08738,-9.94317 1.24608,-3.00538 1.38149,-6.30951 2.32055,-9.40298 1.40219,-5.07725 2.78778,-10.16737 3.70707,-15.3587 1.50627,-8.61814 2.88829,-17.26341 3.82292,-25.96449 0.39443,-3.75121 0.74596,-7.50959 0.92138,-11.27814 0.20761,-4.47346 0.14162,-8.95697 -0.13353,-13.42602 -0.61513,-10.5067 -2.26107,-20.956 -4.95262,-31.13168 -0.68616,-2.29815 -1.3897,-4.61641 -2.52946,-6.73718 -0.82521,-1.38362 -2.4558,-2.33223 -4.08637,-2.10922 -1.86904,0.20139 -3.48326,1.88144 -3.50963,3.77908 -0.0908,1.03741 0.008,2.09108 0.0209,3.10753 0.15999,4.27481 0.45476,8.57079 0.60048,12.82901 0.29957,9.54925 0.2245,19.10707 -0.0832,28.65509 -0.11098,3.19525 -0.2049,6.4084 -0.40343,9.60623 -0.17867,2.19995 -0.52261,4.38261 -0.86058,6.56262 -1.10175,6.80058 -2.37133,13.56554 -3.7294,20.32319 -0.72867,2.82179 -1.51905,5.62707 -2.28347,8.4393 -1.15232,4.17142 -2.31512,8.34289 -3.68063,12.45051 -0.4736,1.39168 -0.99466,2.79397 -1.54209,4.11601 -1.53224,3.6832 -3.36453,7.30072 -5.96449,10.35456 -1.85641,2.19506 -4.14213,4.01898 -6.68702,5.35506 -1.44842,0.75554 -2.95236,1.42128 -4.51896,1.89066 -1.18435,0.32738 -2.42546,0.32547 -3.64402,0.3865 -3.09341,0.10647 -6.18891,0.14327 -9.28372,0.18371 -3.94082,0.0406 -7.88294,0.0652 -11.82281,-0.0494 -0.6498,-0.0229 -1.36497,-0.0502 -2.04005,-0.0835 -2.68395,-0.12979 -5.38674,-0.34628 -8.05351,-0.80543 -0.63455,-0.10491 -1.26754,-0.22441 -1.87308,-0.34771 -3.1055,-0.63533 -6.20567,-1.57272 -9.14087,-2.82935 -1.07922,-0.47122 -2.19216,-1.00884 -3.1852,-1.57405 -1.91207,-1.10638 -3.76634,-2.44216 -5.02587,-4.28865 -0.0754,-1.19782 0.0245,-2.40291 0.0902,-3.60081 0.13482,-2.13501 0.14343,-4.27549 0.21766,-6.41308 0.0879,-3.32624 0.18585,-6.65041 0.37353,-9.9793 0.45839,-8.21959 1.22929,-16.46749 2.01749,-24.68075 1.26632,-13.12405 2.26923,-26.27787 2.7575,-39.45586 0.51919,-12.97229 0.96936,-25.94738 1.52636,-38.91813 0.16699,-3.61731 0.33759,-7.23722 0.58422,-10.83688 0.0542,-1.25392 0.4277,-2.48124 0.37547,-3.74069 -0.0498,-1.25958 -0.59074,-2.53994 -1.63084,-3.29379 -1.40029,-1.06302 -3.53687,-1.09606 -4.89402,0.0605 -1.14358,0.86589 -1.68884,2.24671 -2.19148,3.54032 -1.62598,4.25235 -2.34821,8.76885 -3.16366,13.22693 -1.55357,8.9286 -2.6557,17.92853 -3.63705,26.9359 -1.27194,11.86249 -2.2761,23.75218 -3.18568,35.64769 -0.66431,8.74881 -1.26042,17.50205 -1.84865,26.25634 -0.23806,3.38274 -0.48972,6.81804 -0.77887,10.18635 -0.24596,2.70694 -0.50486,5.40293 -0.85666,8.1095 -0.43684,3.25086 -0.94055,6.5378 -2.01058,9.66373 -0.925,2.69985 -2.32586,5.2637 -4.29373,7.34661 -1.59023,1.71198 -3.40909,3.25009 -5.27804,4.61034 -0.96695,0.70361 -1.97372,1.38566 -2.96759,2.0036 -2.50949,1.57119 -5.139,2.94886 -7.85085,4.13641 -0.88027,0.37972 -1.84396,0.78078 -2.77966,1.12813 -1.87526,0.70427 -3.75601,1.3002 -5.70782,1.76017 -1.26176,0.30591 -2.55561,0.46033 -3.85153,0.51505 -0.33462,0.0146 -0.75702,0.0245 -1.1262,0.0234 -4.24093,-0.0166 -8.41059,-0.93615 -12.50835,-1.94799 -1.10986,-0.27532 -2.19187,-0.53389 -3.29056,-0.86654 -0.15117,-0.0467 -0.41419,-0.13048 -0.60836,-0.19167 -0.58639,-0.19827 -1.13972,-0.39757 -1.69115,-0.63913 -2.57067,-1.10392 -5.01242,-2.62937 -6.88231,-4.73354 -0.55978,-0.64364 -1.04217,-1.40243 -1.12527,-2.2712 -0.0959,-0.5608 -0.17413,-1.19106 -0.22928,-1.71425 -0.2345,-2.44137 -0.32912,-4.89335 -0.4077,-7.34392 -0.0138,-0.65317 -0.0311,-1.37314 -0.0462,-2.052 -0.21613,-10.02091 -0.21692,-20.04474 -0.22982,-30.0675 0.0166,-7.26245 0.20748,-14.52294 0.35589,-21.78351 0.54225,-24.57191 1.27237,-49.18907 -0.36964,-73.73613 -0.0973,-1.22226 -0.13039,-2.45266 -0.30003,-3.66733 -0.31098,-1.25226 -1.04181,-2.45746 -2.16805,-3.129 -1.14305,-0.67572 -2.61554,-0.72975 -3.80469,-0.13894 -1.32601,0.6264 -2.19656,1.91521 -2.72962,3.23908 -0.52256,1.33668 -0.7727,2.75792 -1.06913,4.15652 -0.70702,3.65532 -1.15103,7.35535 -1.54991,11.05511 -0.80384,7.90406 -0.99912,15.85221 -1.21731,23.78919 -0.463,20.38382 -0.48879,40.77387 -0.70296,61.16102 -0.0834,7.87875 -0.16979,15.75805 -0.38162,23.63459 -0.0937,3.20773 -0.22207,6.4463 -0.46944,9.65887 -0.17083,1.87005 -0.35326,3.76797 -1.02207,5.5381 -0.99524,2.70293 -2.18493,5.41527 -4.15336,7.56273 -1.66694,1.82311 -3.95332,2.97527 -6.32385,3.58358 -0.6808,0.18562 -1.39883,0.33992 -2.0608,0.45673 -1.63236,0.29241 -3.30836,0.43901 -4.93987,0.52749 -5.2639,0.27532 -10.60949,-0.28976 -15.69405,-1.7377 -3.29173,-0.9655 -6.55447,-2.23445 -9.33813,-4.27782 -2.23808,-1.67025 -4.28255,-3.62793 -5.91579,-5.89964 -0.66515,-0.97219 -1.329,-2.02251 -1.44158,-3.2239 -0.0503,-0.34957 -0.0908,-0.80934 -0.11631,-1.20761 -0.0431,-0.63657 -0.0622,-1.36326 -0.10102,-2.03927 -0.38685,-8.9557 -0.50365,-17.92665 -0.57126,-26.89496 -0.11814,-20.67411 0.0337,-41.34985 0.45893,-62.01992 0.0786,-3.44571 0.16744,-6.8912 0.26731,-10.33636 0.11976,-3.39573 0.23311,-6.85095 0.436,-10.2417 0.09,-1.82313 0.27496,-3.63918 0.48757,-5.45155 0.28695,-2.5895 0.58647,-5.19639 0.43676,-7.80523 -0.13253,-1.39501 -0.7785,-2.81155 -1.98983,-3.58413 -1.47723,-0.97998 -3.57235,-0.80505 -4.9061,0.34689 -0.98944,0.83273 -1.4201,2.10437 -1.82359,3.28958 -1.5184,4.9471 -2.75321,9.97965 -3.78324,15.05036 -0.8501,4.53384 -1.10446,9.14912 -1.38342,13.74527 -0.46978,8.51098 -0.73361,17.03269 -0.99932,25.55176 -0.56085,18.66184 -0.93419,37.32863 -1.44793,55.99173 -0.11282,3.78354 -0.2458,7.56868 -0.43976,11.35499 -0.0925,1.63725 -0.17748,3.31408 -0.32052,4.96305 -0.0377,0.38537 -0.0781,0.85422 -0.12622,1.27119 -0.16361,1.30735 -0.29062,2.64471 -0.77703,3.88032 -0.28536,0.70306 -0.80488,1.3377 -1.53341,1.60456 -1.10421,0.43999 -2.31526,0.31256 -3.47617,0.34245 -2.38324,2.9e-4 -4.76511,-0.0919 -7.14737,-0.14821 -2.08828,-0.0719 -4.22031,-0.11904 -6.31183,-0.37054 -0.25057,-0.0331 -0.44785,-0.0621 -0.71242,-0.11121 -1.42462,-0.24435 -2.77623,-0.77966 -4.07773,-1.39387 -2.16398,-1.00585 -4.32511,-2.09442 -6.14814,-3.65746 -1.51735,-1.26296 -2.802394,-2.80139 -3.765054,-4.52573 -1.64384,-2.85944 -2.59341,-6.05027 -3.37274,-9.23644 -0.77776,-3.26582 -1.3534,-6.58456 -1.85265,-9.88017 -0.79249,-5.36218 -1.31783,-10.82724 -1.60727,-16.23664 -0.0974,-1.79437 -0.17012,-3.58524 -0.21449,-5.36768 -0.15881,-6.13364 -7.9e-4,-12.24602 0.32867,-18.36729 0.5538,-10.29496 1.54628,-20.60206 2.27525,-30.90497 0.68016,-9.54708 1.14458,-19.09791 2.13373,-28.6138 0.47996,-4.68736 1.16518,-9.38599 2.32899,-13.96988 0.41138,-1.67242 0.87224,-3.37334 1.34224,-5.00424 1.086114,-3.67439 2.310014,-7.31339 3.794594,-10.84732 1.02232,-2.36178 2.07293,-4.77316 3.78605,-6.72922 1.50028,-1.81444 3.1236,-3.52501 4.82825,-5.14819 0.55693,-0.52607 1.18056,-1.10184 1.75527,-1.61214 1.88115,-1.68333 3.85628,-3.2777 6.032,-4.56769 4.2537,-2.58203 8.89468,-4.55649 13.74763,-5.67985 0.36627,-0.0839 0.6763,-0.14799 1.04687,-0.22419 0.4298,-0.0864 0.93653,-0.17935 1.39871,-0.25232 0.5647,-0.0921 1.14676,-0.17308 1.68469,-0.23147 0.40275,-0.0477 0.82583,-0.0849 1.25817,-0.11761 1.65368,-0.10148 3.34682,-0.1864 4.96768,0.22457 0.89279,0.21981 1.71035,0.711 2.31063,1.40913 1.28854,1.42796 1.86828,3.30209 2.8282,4.93591 0.67056,1.12129 1.6639,2.16815 2.98128,2.46617 1.65096,0.40444 3.5721,-0.29539 4.4211,-1.80408 0.59904,-1.01815 0.77959,-2.20453 1.13058,-3.31709 0.90166,-3.24097 1.80048,-6.46897 2.98519,-9.61176 1.8344,-4.88244 4.15038,-9.63714 7.37941,-13.75893 2.68461,-3.43437 6.00061,-6.4242 9.86975,-8.46431 0.13205,-0.0688 0.33933,-0.17766 0.48535,-0.24918 1.12883,-0.5712 2.36292,-1.09293 3.58504,-1.52505 1.20745,-0.42969 2.50408,-0.80652 3.77807,-1.10599 1.4192,-0.31634 2.84724,-0.64492 4.30464,-0.71288 0.14323,-0.006 0.40184,-0.0128 0.59271,-0.009 1.29669,0.0492 2.5871,0.2097 3.87603,0.35465 3.89542,0.49443 7.77782,1.08665 11.6557,1.70249 3.61436,0.58434 7.25042,1.2082 10.85897,1.88751 0.69465,0.13541 1.38885,0.27361 2.07943,0.42863 -0.0837,1.9319 -0.27266,3.85646 -0.45974,5.78039 -0.11228,1.29404 -0.22241,2.59524 -0.16626,3.89447 0.13573,1.59211 1.24486,3.09136 2.79132,3.56443 1.71172,0.56941 3.73122,-0.10653 4.77966,-1.5692 1.25149,-1.55389 1.86343,-3.48791 2.5062,-5.34589 0.43018,-1.33484 0.99487,-2.66364 1.59597,-3.95413 0.25222,-0.54812 0.49188,-1.07777 0.74626,-1.6031 0.36523,-0.76702 0.7393,-1.5265 1.1166,-2.26432 1.20464,-2.35578 2.47523,-4.68059 3.8687,-6.93044 0.28175,-0.44988 0.57892,-0.90063 0.86182,-1.31332 0.33888,-0.49531 0.68508,-0.96087 1.03997,-1.42043 2.03622,-2.626993 4.48202,-4.926843 7.18347,-6.859133 0.15356,-0.10545 0.37108,-0.26393 0.52893,-0.37089 4.63265,-3.18979 9.93831,-5.33734 15.41608,-6.55814 2.07743,-0.45905 4.22982,-0.7452 6.32905,-0.87773 0.976,-0.0606 1.95384,-0.0842 2.93155,-0.0923 z M 212.17726,342.53493 c -1.80033,1.89448 -2.95547,4.29135 -3.83858,6.72487 -1.00533,2.83425 -1.70991,5.76498 -2.32838,8.70467 -0.14669,-0.68248 -0.25164,-1.44844 -0.3077,-2.0969 -0.29457,-3.434 0.46458,-6.9971 2.37565,-9.88949 0.64561,-0.96881 1.38442,-1.89542 2.2913,-2.63211 0.5673,-0.42832 1.2247,-0.73114 1.90962,-0.91618 -0.034,0.0351 -0.0679,0.0701 -0.10191,0.10514 z m 9.92223,7.41444 c 1.54798,0.2926 3.02829,0.84918 4.52373,1.33089 4.94065,1.67616 9.80023,3.58425 14.60709,5.61008 1.22441,0.52268 2.4342,1.05318 3.6272,1.60974 0.84185,0.4055 1.69994,0.78603 2.50975,1.25194 0.40664,0.2496 0.42773,0.76564 0.55518,1.17668 0.39222,1.91994 0.42486,3.89071 0.35578,5.84258 -0.0462,1.3104 -0.11299,2.71016 -0.20432,4.02113 -0.27403,4.05378 -0.67668,8.10133 -1.2887,12.11868 -0.0499,0.28427 -0.11109,0.66294 -0.16754,0.98321 0.0195,0.29335 -0.30528,0.0362 -0.47108,0.0333 -1.46507,-0.43341 -2.91542,-0.92376 -4.34926,-1.39948 -3.19539,-1.07541 -6.3568,-2.24961 -9.4961,-3.47866 -3.17466,-1.25291 -6.36692,-2.5735 -9.48628,-3.99705 -1.93923,-0.88536 -3.91366,-1.81718 -5.80886,-2.83995 -0.66617,-0.3606 -1.31105,-0.72993 -1.94922,-1.15951 -0.0659,-2.32381 0.18344,-4.64686 0.56349,-6.93673 0.30655,-1.77297 0.70675,-3.52952 1.19493,-5.26126 0.0782,-0.26132 0.18025,-0.6169 0.2686,-0.91414 0.605,-1.96037 1.31799,-3.9085 2.37608,-5.67408 0.61569,-0.9759 1.42372,-1.94018 2.5581,-2.30448 0.0271,-0.004 0.0543,-0.009 0.0814,-0.0129 z" /></svg>